<mxfile host="app.diagrams.net" modified="2024-04-11T02:14:46.691Z" agent="Mozilla/5.0 (Macintosh; Intel Mac OS X 10_15_7) AppleWebKit/537.36 (KHTML, like Gecko) Chrome/109.0.0.0 Safari/537.36" etag="nRURuw1fyS55diZZ1_RE" version="22.1.18" type="github">
  <diagram name="Page-1" id="74e2e168-ea6b-b213-b513-2b3c1d86103e">
    <mxGraphModel dx="466" dy="266" grid="1" gridSize="10" guides="1" tooltips="1" connect="1" arrows="1" fold="1" page="1" pageScale="1" pageWidth="1100" pageHeight="850" background="none" math="0" shadow="0">
      <root>
        <mxCell id="0" />
        <mxCell id="1" parent="0" />
        <mxCell id="77e6c97f196da883-1" value="鲸通拉平" style="swimlane;html=1;childLayout=stackLayout;startSize=20;rounded=0;shadow=0;labelBackgroundColor=none;strokeWidth=1;fontFamily=Verdana;fontSize=8;align=center;" parent="1" vertex="1">
          <mxGeometry x="70" y="40" width="310" height="400" as="geometry" />
        </mxCell>
        <mxCell id="77e6c97f196da883-2" value="办事处" style="swimlane;html=1;startSize=20;" parent="77e6c97f196da883-1" vertex="1">
          <mxGeometry y="20" width="160" height="380" as="geometry" />
        </mxCell>
        <mxCell id="dC3b9IVLeat-enxn6hCN-3" value="" style="edgeStyle=orthogonalEdgeStyle;rounded=0;orthogonalLoop=1;jettySize=auto;html=1;" edge="1" parent="77e6c97f196da883-2" source="77e6c97f196da883-8" target="dC3b9IVLeat-enxn6hCN-2">
          <mxGeometry relative="1" as="geometry" />
        </mxCell>
        <mxCell id="77e6c97f196da883-8" value="业务情况收集" style="rounded=1;whiteSpace=wrap;html=1;shadow=0;labelBackgroundColor=none;strokeWidth=1;fontFamily=Verdana;fontSize=8;align=center;" parent="77e6c97f196da883-2" vertex="1">
          <mxGeometry x="20" y="40" width="100" height="25" as="geometry" />
        </mxCell>
        <mxCell id="dC3b9IVLeat-enxn6hCN-1" style="edgeStyle=orthogonalEdgeStyle;rounded=0;orthogonalLoop=1;jettySize=auto;html=1;exitX=0.5;exitY=1;exitDx=0;exitDy=0;" edge="1" parent="77e6c97f196da883-2" source="77e6c97f196da883-8" target="77e6c97f196da883-8">
          <mxGeometry relative="1" as="geometry" />
        </mxCell>
        <mxCell id="dC3b9IVLeat-enxn6hCN-2" value="部署情况收集" style="rounded=1;whiteSpace=wrap;html=1;shadow=0;labelBackgroundColor=none;strokeWidth=1;fontFamily=Verdana;fontSize=8;align=center;" vertex="1" parent="77e6c97f196da883-2">
          <mxGeometry x="20" y="90" width="100" height="25" as="geometry" />
        </mxCell>
        <mxCell id="dC3b9IVLeat-enxn6hCN-16" value="" style="edgeStyle=orthogonalEdgeStyle;rounded=0;orthogonalLoop=1;jettySize=auto;html=1;" edge="1" parent="77e6c97f196da883-2" source="dC3b9IVLeat-enxn6hCN-10" target="dC3b9IVLeat-enxn6hCN-15">
          <mxGeometry relative="1" as="geometry" />
        </mxCell>
        <mxCell id="dC3b9IVLeat-enxn6hCN-10" value="&lt;font style=&quot;font-size: 8px;&quot;&gt;讨论是否拉平？&lt;/font&gt;" style="rhombus;whiteSpace=wrap;html=1;" vertex="1" parent="77e6c97f196da883-2">
          <mxGeometry x="35" y="130" width="70" height="70" as="geometry" />
        </mxCell>
        <mxCell id="dC3b9IVLeat-enxn6hCN-15" value="输出拉平计划" style="rounded=1;whiteSpace=wrap;html=1;shadow=0;labelBackgroundColor=none;strokeWidth=1;fontFamily=Verdana;fontSize=8;align=center;" vertex="1" parent="77e6c97f196da883-2">
          <mxGeometry x="20" y="220" width="100" height="25" as="geometry" />
        </mxCell>
        <mxCell id="dC3b9IVLeat-enxn6hCN-26" value="" style="edgeStyle=orthogonalEdgeStyle;rounded=0;orthogonalLoop=1;jettySize=auto;html=1;" edge="1" parent="77e6c97f196da883-2" source="dC3b9IVLeat-enxn6hCN-20" target="dC3b9IVLeat-enxn6hCN-25">
          <mxGeometry relative="1" as="geometry" />
        </mxCell>
        <mxCell id="dC3b9IVLeat-enxn6hCN-20" value="现场测试" style="rounded=1;whiteSpace=wrap;html=1;shadow=0;labelBackgroundColor=none;strokeWidth=1;fontFamily=Verdana;fontSize=8;align=center;" vertex="1" parent="77e6c97f196da883-2">
          <mxGeometry x="20" y="270" width="100" height="25" as="geometry" />
        </mxCell>
        <mxCell id="dC3b9IVLeat-enxn6hCN-25" value="升级上线" style="rounded=1;whiteSpace=wrap;html=1;shadow=0;labelBackgroundColor=none;strokeWidth=1;fontFamily=Verdana;fontSize=8;align=center;" vertex="1" parent="77e6c97f196da883-2">
          <mxGeometry x="20" y="330" width="100" height="25" as="geometry" />
        </mxCell>
        <mxCell id="77e6c97f196da883-3" value="产品线" style="swimlane;html=1;startSize=20;" parent="77e6c97f196da883-1" vertex="1">
          <mxGeometry x="160" y="20" width="150" height="380" as="geometry" />
        </mxCell>
        <mxCell id="dC3b9IVLeat-enxn6hCN-6" value="" style="edgeStyle=orthogonalEdgeStyle;rounded=0;orthogonalLoop=1;jettySize=auto;html=1;" edge="1" parent="77e6c97f196da883-3" source="77e6c97f196da883-11" target="dC3b9IVLeat-enxn6hCN-5">
          <mxGeometry relative="1" as="geometry" />
        </mxCell>
        <mxCell id="77e6c97f196da883-11" value="版本业务功能整理" style="rounded=1;whiteSpace=wrap;html=1;shadow=0;labelBackgroundColor=none;strokeWidth=1;fontFamily=Verdana;fontSize=8;align=center;" parent="77e6c97f196da883-3" vertex="1">
          <mxGeometry x="30" y="40" width="100" height="25" as="geometry" />
        </mxCell>
        <mxCell id="dC3b9IVLeat-enxn6hCN-14" style="edgeStyle=orthogonalEdgeStyle;rounded=0;orthogonalLoop=1;jettySize=auto;html=1;entryX=0.5;entryY=0;entryDx=0;entryDy=0;" edge="1" parent="77e6c97f196da883-3" source="dC3b9IVLeat-enxn6hCN-5" target="dC3b9IVLeat-enxn6hCN-12">
          <mxGeometry relative="1" as="geometry" />
        </mxCell>
        <mxCell id="dC3b9IVLeat-enxn6hCN-5" value="新版本业务功能对标" style="rounded=1;whiteSpace=wrap;html=1;shadow=0;labelBackgroundColor=none;strokeWidth=1;fontFamily=Verdana;fontSize=8;align=center;" vertex="1" parent="77e6c97f196da883-3">
          <mxGeometry x="30" y="90" width="100" height="25" as="geometry" />
        </mxCell>
        <mxCell id="dC3b9IVLeat-enxn6hCN-12" value="输出拉平方案" style="rounded=1;whiteSpace=wrap;html=1;shadow=0;labelBackgroundColor=none;strokeWidth=1;fontFamily=Verdana;fontSize=8;align=center;" vertex="1" parent="77e6c97f196da883-3">
          <mxGeometry x="30" y="140" width="100" height="25" as="geometry" />
        </mxCell>
        <mxCell id="dC3b9IVLeat-enxn6hCN-21" value="" style="edgeStyle=orthogonalEdgeStyle;rounded=0;orthogonalLoop=1;jettySize=auto;html=1;" edge="1" parent="77e6c97f196da883-3" source="dC3b9IVLeat-enxn6hCN-17" target="dC3b9IVLeat-enxn6hCN-19">
          <mxGeometry relative="1" as="geometry" />
        </mxCell>
        <mxCell id="dC3b9IVLeat-enxn6hCN-17" value="输出新版本" style="rounded=1;whiteSpace=wrap;html=1;shadow=0;labelBackgroundColor=none;strokeWidth=1;fontFamily=Verdana;fontSize=8;align=center;" vertex="1" parent="77e6c97f196da883-3">
          <mxGeometry x="30" y="220" width="100" height="25" as="geometry" />
        </mxCell>
        <mxCell id="dC3b9IVLeat-enxn6hCN-19" value="版本内部测试" style="rounded=1;whiteSpace=wrap;html=1;shadow=0;labelBackgroundColor=none;strokeWidth=1;fontFamily=Verdana;fontSize=8;align=center;" vertex="1" parent="77e6c97f196da883-3">
          <mxGeometry x="30" y="270" width="100" height="25" as="geometry" />
        </mxCell>
        <mxCell id="dC3b9IVLeat-enxn6hCN-4" style="edgeStyle=orthogonalEdgeStyle;rounded=0;orthogonalLoop=1;jettySize=auto;html=1;entryX=0;entryY=0.5;entryDx=0;entryDy=0;" edge="1" parent="77e6c97f196da883-1" source="dC3b9IVLeat-enxn6hCN-2" target="77e6c97f196da883-11">
          <mxGeometry relative="1" as="geometry" />
        </mxCell>
        <mxCell id="dC3b9IVLeat-enxn6hCN-13" style="edgeStyle=orthogonalEdgeStyle;rounded=0;orthogonalLoop=1;jettySize=auto;html=1;entryX=1;entryY=0.5;entryDx=0;entryDy=0;" edge="1" parent="77e6c97f196da883-1" source="dC3b9IVLeat-enxn6hCN-12" target="dC3b9IVLeat-enxn6hCN-10">
          <mxGeometry relative="1" as="geometry" />
        </mxCell>
        <mxCell id="dC3b9IVLeat-enxn6hCN-18" value="" style="edgeStyle=orthogonalEdgeStyle;rounded=0;orthogonalLoop=1;jettySize=auto;html=1;" edge="1" parent="77e6c97f196da883-1" source="dC3b9IVLeat-enxn6hCN-15" target="dC3b9IVLeat-enxn6hCN-17">
          <mxGeometry relative="1" as="geometry" />
        </mxCell>
        <mxCell id="dC3b9IVLeat-enxn6hCN-22" value="" style="edgeStyle=orthogonalEdgeStyle;rounded=0;orthogonalLoop=1;jettySize=auto;html=1;" edge="1" parent="77e6c97f196da883-1" source="dC3b9IVLeat-enxn6hCN-19" target="dC3b9IVLeat-enxn6hCN-20">
          <mxGeometry relative="1" as="geometry" />
        </mxCell>
      </root>
    </mxGraphModel>
  </diagram>
</mxfile>
